# xmcd
#
# Track frame offsets:
#	150
#	20814
#	33466
#	49575
#	56588
#	71651
#	86347
#	101420
#	117309
#	129024
#	138804
#	156236
#
# Disc length: 2336 seconds
#
# Revision: 1
# Processed by: cddbd v1.5PL3 Copyright (c) Steve Scherf et al.
# Submitted via: CDex 1.50Beta5
#
DISCID=98091e0c
DTITLE=Tragedy - Vengeance -Ltd Japan Tour Edition-
DYEAR=1900
DGENRE=Rock
TTITLE0=Conflicting Ideas
TTITLE1=Call to Arms
TTITLE2=Vengeance
TTITLE3=Recurring Nightmare
TTITLE4=Beginning of the End
TTITLE5=The Lure
TTITLE6=Night Falls
TTITLE7=The Day After
TTITLE8=War Withing Us
TTITLE9=Revengeance
TTITLE10=To the Dogs
TTITLE11=No Words
EXTD=
EXTT0=
EXTT1=
EXTT2=
EXTT3=
EXTT4=
EXTT5=
EXTT6=
EXTT7=
EXTT8=
EXTT9=
EXTT10=
EXTT11=
PLAYORDER=
